<svg width="236" height="78" viewBox="0 0 236 78" fill="none" xmlns="http://www.w3.org/2000/svg">
<path d="M81.9063 46.2405L80.8021 50.3278L59.7162 56.7428L58.3498 53.2119L77.9258 47.3835L59.0779 27.2989L31.9589 58.4997L29.1186 56.1771L32.2318 52.5815L13.0762 32.0313L14.1804 27.944L35.5039 21.5932L36.6006 25.1787L17.0438 30.9358L34.7035 49.756L62.4146 17.8737L65.1752 20.3023L61.5194 24.4907L81.9063 46.2405Z" fill="#45433C"/>
<path d="M227.786 42.8586L228.582 43.8029L226.613 49.9222L225.539 49.6625L227.398 44.0025L219.451 45.1788L222.418 56.8655L221.389 57.1598L221.045 55.8159L212.935 56.9885L212.14 56.0443L214.164 49.8787L215.205 50.2122L213.333 55.8557L220.779 54.7538L217.748 42.8119L218.789 42.5543L219.184 44.1268L227.786 42.8586Z" fill="#E8CE45"/>
<path d="M44.5313 66.5353C42.7886 66.7813 41.3206 66.4553 40.1274 65.5573C38.9658 64.6548 38.2598 63.3163 38.0093 61.5419L36.2246 48.8993C35.9428 46.903 36.2487 45.2925 37.1423 44.0676C38.0314 42.8109 39.474 42.0417 41.4702 41.7599L46.7459 41.0152L47.1485 43.8669L41.9678 44.5983C41.2391 44.7011 40.6887 45.0374 40.3166 45.607C39.9401 46.1449 39.8055 46.7941 39.9129 47.5545L41.8586 61.3379C41.966 62.0983 42.2772 62.7007 42.7924 63.1451C43.3348 63.5533 43.9703 63.7059 44.6991 63.6031L49.8322 62.8784L50.2348 65.7302L44.5313 66.5353ZM59.6356 64.7424C57.4176 65.0555 55.6125 64.7448 54.2202 63.8102C52.8551 62.8395 52.0317 61.3561 51.7499 59.3598L49.9652 46.7172C49.6834 44.721 50.0662 43.0834 51.1137 41.8044C52.1884 40.4893 53.8348 39.6752 56.0528 39.3621C58.2708 39.049 60.0624 39.3778 61.4275 40.3485C62.8198 41.283 63.6568 42.7484 63.9386 44.7446L65.7233 57.3873C66.0051 59.3835 65.6086 61.0392 64.5339 62.3543C63.4864 63.6333 61.8537 64.4293 59.6356 64.7424ZM59.2197 61.7956C60.2336 61.6525 60.9855 61.2555 61.4753 60.6046C61.9924 59.9176 62.1726 59.0196 62.0161 57.9106L60.2314 45.268C60.0748 44.159 59.6553 43.3618 58.9727 42.8764C58.3174 42.3549 57.4828 42.1657 56.4688 42.3088C55.4549 42.452 54.6894 42.867 54.1723 43.5541C53.6825 44.2049 53.5158 45.0849 53.6724 46.1939L55.4571 58.8365C55.6137 59.9455 56.0196 60.7608 56.6749 61.2823C57.3575 61.7677 58.2057 61.9388 59.2197 61.7956ZM77.6032 61.8667C75.607 62.1485 73.9083 61.7904 72.507 60.7925C71.1058 59.7946 70.2665 58.3133 69.9892 56.3488L68.3185 44.5141C68.1262 43.1517 68.3273 41.9437 68.9219 40.8902C69.5482 39.8323 70.3912 39.0508 71.451 38.5457L77.5045 35.4128L76.4713 28.0933L80.2736 27.5566L84.9702 60.8267L77.6032 61.8667ZM80.7653 58.5118L77.9473 38.5497L73.9186 40.5727C73.1305 40.9425 72.6025 41.4371 72.3344 42.0567C72.0936 42.6401 72.0582 43.5338 72.2282 44.7379L73.7915 55.8121C73.9525 56.9527 74.4104 57.793 75.1653 58.3328C75.9202 58.8726 76.8679 59.0619 78.0086 58.9009L80.7653 58.5118ZM95.6274 59.3223C93.8846 59.5683 92.4167 59.2423 91.2234 58.3443C90.0619 57.4418 89.3559 56.1033 89.1054 54.3289L87.3207 41.6863C87.0299 39.6267 87.3722 37.9302 88.3473 36.5968C89.3225 35.2634 90.935 34.4379 93.1847 34.1203C95.4344 33.8028 97.1965 34.1519 98.471 35.1677C99.7772 36.179 100.576 37.7145 100.866 39.7741L101.175 41.9604C101.363 43.2912 101.126 44.3588 100.464 45.1633C99.7972 45.936 98.8706 46.5839 97.6841 47.1069L92.2971 49.4671L92.9546 54.1249C93.062 54.8853 93.3732 55.4877 93.8884 55.9321C94.4308 56.3403 95.0664 56.4929 95.7951 56.3901L100.928 55.6655L101.331 58.5172L95.6274 59.3223ZM94.6596 45.2555C95.665 44.8227 96.333 44.5183 96.6637 44.3424C97.0215 44.1303 97.2437 43.8727 97.3302 43.5696C97.4167 43.2666 97.413 42.7823 97.319 42.1169L96.95 39.5029C96.8069 38.4889 96.4324 37.7823 95.8267 37.3831C95.2526 36.9793 94.5061 36.8423 93.5872 36.9721C92.7 37.0973 92.007 37.4537 91.5083 38.0411C91.0412 38.6242 90.8747 39.391 91.0089 40.3415L91.8744 46.4727L94.6596 45.2555ZM107.397 57.6608L102.7 24.3907L109.022 23.4983L118.168 42.2762L118.501 42.2292L122.235 21.6331L128.318 20.7743L133.015 54.0445L128.833 54.6349L124.84 26.3553L121.216 46.6936L116.7 47.331L107.581 28.7433L111.58 57.0704L107.397 57.6608ZM143.901 52.5078C142.76 52.6688 141.659 52.5335 140.596 52.1018C139.565 51.6656 138.695 50.9967 137.986 50.0949C137.308 49.1887 136.882 48.1177 136.708 46.882L136.359 44.4105C136.149 42.9212 136.337 41.6182 136.922 40.5014C137.54 39.3801 138.374 38.5352 139.425 37.9667L145.009 34.9484L144.694 32.7146C144.587 31.9541 144.262 31.3698 143.72 30.9616C143.204 30.5172 142.582 30.3465 141.854 30.4494L136.483 31.2075L136.087 28.4033L141.79 27.5982C143.533 27.3522 144.985 27.6805 146.147 28.583C147.336 29.4493 148.055 30.7697 148.306 32.5441L150.983 51.5081L143.901 52.5078ZM147.009 49.112L145.432 37.9427L141.471 40.1016C140.692 40.5348 140.166 41.0453 139.894 41.6331C139.653 42.2165 139.615 43.0944 139.781 44.2668L140.156 46.9284C140.277 47.7839 140.697 48.468 141.416 48.9805C142.134 49.4931 142.937 49.6868 143.824 49.5615L147.009 49.112ZM152.733 26.0535L155.68 25.6375L156.302 26.9555L158.17 26.11C159.443 25.5102 160.449 25.0775 161.187 24.8117C161.952 24.5097 162.683 24.3096 163.38 24.2112C164.521 24.0501 165.416 24.3277 166.067 25.0438C166.717 25.7599 167.132 26.7517 167.311 28.0191L170.243 48.7892L166.441 49.3259L163.683 29.7916C163.553 28.8727 163.401 28.2479 163.225 27.9173C163.044 27.5549 162.701 27.4096 162.194 27.4811C161.94 27.5169 160.253 28.2721 157.133 29.7468L160.024 50.2317L156.222 50.7684L152.733 26.0535ZM171.471 19.2878L170.935 15.4855L174.737 14.9488L175.274 18.7511L171.471 19.2878ZM175.531 48.0427L172.042 23.3278L175.844 22.791L179.333 47.506L175.531 48.0427ZM190.084 45.9884C188.943 46.1494 187.841 46.0141 186.779 45.5824C185.747 45.1462 184.877 44.4773 184.168 43.5755C183.491 42.6693 183.065 41.5983 182.891 40.3626L182.542 37.8911C182.332 36.4018 182.519 35.0988 183.105 33.982C183.722 32.8607 184.556 32.0158 185.607 31.4473L191.192 28.429L190.877 26.1952C190.77 25.4347 190.445 24.8504 189.902 24.4422C189.387 23.9978 188.765 23.8271 188.036 23.93L182.666 24.6882L182.27 21.884L187.973 21.0788C189.716 20.8328 191.168 21.1611 192.33 22.0636C193.518 22.9299 194.238 24.2503 194.488 26.0247L197.166 44.9887L190.084 45.9884ZM193.192 42.5926L191.615 31.4233L187.654 33.5822C186.875 34.0154 186.349 34.5259 186.076 35.1137C185.836 35.6971 185.798 36.575 185.963 37.7474L186.339 40.409C186.46 41.2645 186.88 41.9486 187.598 42.4611C188.317 42.9737 189.12 43.1674 190.007 43.0421L193.192 42.5926ZM207.633 43.511C205.89 43.757 204.422 43.431 203.229 42.533C202.068 41.6305 201.361 40.292 201.111 38.5176L199.326 25.875C199.045 23.8788 199.35 22.2682 200.244 21.0433C201.133 19.7867 202.576 19.0175 204.572 18.7357L209.848 17.9909L210.25 20.8427L205.069 21.574C204.341 21.6769 203.79 22.0131 203.418 22.5827C203.042 23.1206 202.907 23.7698 203.015 24.5302L204.96 38.3136C205.068 39.074 205.379 39.6764 205.894 40.1208C206.436 40.529 207.072 40.6817 207.801 40.5788L212.934 39.8542L213.336 42.7059L207.633 43.511Z" fill="white"/>
</svg>
